<svg xmlns="http://www.w3.org/2000/svg" width="32" height="32" viewBox="0 0 32 32" fill="none">
  <rect width="32" height="32" rx="8" fill="url(#grad)" />
  <path d="M10 22V10h4.5c1.2 0 2.1.3 2.8.9.7.6 1 1.4 1 2.4 0 .7-.2 1.3-.5 1.8-.4.5-.9.8-1.5 1v.1c.7.1 1.3.5 1.8 1 .4.6.7 1.2.7 2 0 1.1-.4 2-1.1 2.6-.7.7-1.7 1-2.9 1H10zm2.5-7h2.2c.6 0 1-.2 1.4-.5.3-.3.5-.8.5-1.3 0-.6-.2-1-.5-1.3-.3-.3-.8-.5-1.4-.5h-2.2v3.6zm0 5h2.5c.7 0 1.2-.2 1.5-.5.4-.4.5-.8.5-1.4 0-.6-.2-1-.5-1.4-.4-.4-.9-.5-1.5-.5h-2.5V20z" fill="white"/>
  <defs>
    <linearGradient id="grad" x1="0" y1="0" x2="32" y2="32">
      <stop offset="0%" stop-color="#6366f1" />
      <stop offset="100%" stop-color="#d946ef" />
    </linearGradient>
  </defs>
</svg>
